<?xml version="1.0" encoding="UTF-8" standalone="no"?>
<svg enable-background="new" height="16" width="16" xmlns="http://www.w3.org/2000/svg" xmlns:inkscape="http://www.inkscape.org/namespaces/inkscape" xmlns:sodipodi="http://sodipodi.sourceforge.net/DTD/sodipodi-0.dtd" xmlns:svg="http://www.w3.org/2000/svg" xmlns:rdf="http://www.w3.org/1999/02/22-rdf-syntax-ns#" xmlns:cc="http://creativecommons.org/ns#" xmlns:dc="http://purl.org/dc/elements/1.1/" sodipodi:docname="mosaic-on-idea.svg" inkscape:version="1.4.3 (0d15f75042, 2025-12-25)">
    <sodipodi:namedview pagecolor="#ffffff" bordercolor="#000000" borderopacity="0.25" inkscape:showpageshadow="2" inkscape:pageopacity="0.0" inkscape:pagecheckerboard="0" inkscape:deskcolor="#d1d1d1" showgrid="true" inkscape:zoom="27.185291" inkscape:cx="1.8024453" inkscape:cy="7.0626429" inkscape:window-width="1920" inkscape:window-height="1011" inkscape:window-x="0" inkscape:window-y="0" inkscape:window-maximized="1" inkscape:current-layer="svg7384">
        <inkscape:grid units="px" originx="0" originy="0" spacingx="1" spacingy="1" empcolor="#0099e5" empopacity="0.30196078" empspacing="5" enabled="true" visible="true"/>
    </sodipodi:namedview>
    <path d="m 2.2851562 0 c -1.2662854 -0 -2.2851562 1.0188706 -2.2851562 2.2851562 v 11.4296878 c -0 1.266285 1.0188706 2.285156 2.2851562 2.285156 h 11.4296878 c 1.266285 0 2.285156 -1.018871 2.285156 -2.285156 v -11.4296878 c 0 -1.2662854 -1.018871 -2.2851562 -2.285156 -2.2851562 z m 0.7148438 2 h 2 c 0.554 0 1 0.446 1 1 v 10 c 0 0.554 -0.446 1 -1 1 h -2 c -0.554 0 -1 -0.446 -1 -1 v -10 c 0 -0.554 0.446 -1 1 -1 z m 6 0 h 4 c 0.554 0 1 0.446 1 1 v 1 c 0 0.554 -0.446 1 -1 1 h -4 c -0.554 0 -1 -0.446 -1 -1 v -1 c 0 -0.554 0.446 -1 1 -1 z m 0 5 h 4 c 0.554 0 1 0.446 1 1 v 5 c 0 0.554 -0.446 1 -1 1 h -4 c -0.554 0 -1 -0.446 -1 -1 v -5 c 0 -0.554 0.446 -1 1 -1 z" stroke-width="1.14286"/>
</svg>
