<?xml version="1.0" encoding="UTF-8" standalone="no"?>
<!-- Created with Inkscape (http://www.inkscape.org/) -->

<svg
   width="16"
   height="16"
   viewBox="0 0 4.2333332 4.2333333"
   version="1.1"
   id="svg1"
   sodipodi:docname="mosaic-off-symbolic.svg"
   inkscape:version="1.4.3 (0d15f75042, 2025-12-25)"
   xmlns:inkscape="http://www.inkscape.org/namespaces/inkscape"
   xmlns:sodipodi="http://sodipodi.sourceforge.net/DTD/sodipodi-0.dtd"
   xmlns="http://www.w3.org/2000/svg"
   xmlns:svg="http://www.w3.org/2000/svg">
  <sodipodi:namedview
     id="namedview1"
     pagecolor="#ffffff"
     bordercolor="#000000"
     borderopacity="0.25"
     inkscape:showpageshadow="2"
     inkscape:pageopacity="0.0"
     inkscape:pagecheckerboard="0"
     inkscape:deskcolor="#d1d1d1"
     inkscape:document-units="mm"
     showgrid="true"
     inkscape:zoom="46.3191"
     inkscape:cx="8.9811763"
     inkscape:cy="10.190181"
     inkscape:window-width="1920"
     inkscape:window-height="1011"
     inkscape:window-x="0"
     inkscape:window-y="0"
     inkscape:window-maximized="1"
     inkscape:current-layer="layer1">
    <inkscape:grid
       id="grid1"
       units="px"
       originx="0"
       originy="0"
       spacingx="0.26458333"
       spacingy="0.26458333"
       empcolor="#0099e5"
       empopacity="0.30196078"
       color="#0099e5"
       opacity="0.14901961"
       empspacing="5"
       enabled="true"
       visible="true" />
  </sodipodi:namedview>
  <defs
     id="defs1">
    <inkscape:path-effect
       effect="fillet_chamfer"
       id="path-effect6"
       is_visible="true"
       lpeversion="1"
       nodesatellites_param="F,0,0,1,0,0.26458329,0,1 @ F,0,0,1,0,0.26458331,0,1 @ F,0,0,1,0,0,0,1 @ F,0,0,1,0,0.52916659,0,1 @ F,0,0,1,0,0,0,1 @ F,0,0,1,0,0.26458339,0,1"
       radius="0"
       unit="px"
       method="auto"
       mode="F"
       chamfer_steps="1"
       flexible="false"
       use_knot_distance="true"
       apply_no_radius="true"
       apply_with_radius="true"
       only_selected="false"
       hide_knots="false" />
  </defs>
  <g
     inkscape:label="Layer 1"
     inkscape:groupmode="layer"
     id="layer1">
    <path
       id="rect1"
       style="fill:#000000;stroke-width:0.264583"
       d="M 0.52916667,0 C 0.23600835,0 0,0.23600835 0,0.52916667 V 3.7041667 C 0,3.997325 0.23600835,4.2333333 0.52916667,4.2333333 H 3.7041667 c 0.2931583,0 0.5291666,-0.2360083 0.5291666,-0.5291666 V 0.52916667 C 4.2333333,0.23600835 3.997325,0 3.7041667,0 Z M 0.79375,0.52916667 H 2.9104167 C 3.056542,0.52916672 3.175,0.64762469 3.175,0.79375 V 1.3229167 H 1.8520833 c -0.2922506,0 -0.5291666,0.236916 -0.5291666,0.5291666 l -10e-8,1.0583332 H 0.79374998 c -0.14612537,0 -0.26458337,-0.1184579 -0.26458332,-0.2645833 l 10e-9,-1.8520832 C 0.52916665,0.64762465 0.64762465,0.52916665 0.79375,0.52916667 Z M 1.8520833,1.5874999 h 1.5875 c 0.1465792,0 0.2645833,0.1180042 0.2645833,0.2645834 l 10e-8,1.5875 c 0,0.1465792 -0.1180042,0.2645834 -0.2645834,0.2645834 h -1.5875 C 1.7055041,3.7041667 1.5875,3.5861625 1.5875,3.4395833 l 0,-1.5875 c 0,-0.1465792 0.1180041,-0.2645834 0.2645833,-0.2645834 z"
       sodipodi:nodetypes="sssssssssccscsscscccsssssssss" />
  </g>
</svg>
